<?xml version="1.0" encoding="UTF-8"?>
<svg xmlns="http://www.w3.org/2000/svg" xmlns:xlink="http://www.w3.org/1999/xlink" width="50pt" height="50pt" viewBox="0 0 50 50" version="1.1">
<g id="surface1">
<path style=" stroke:none;fill-rule:nonzero;fill:rgb(0%,0%,0%);fill-opacity:1;" d="M 42.765625 35.761719 L 42.765625 22.402344 L 47.210938 22.402344 C 47.828125 22.402344 48.332031 21.898438 48.332031 21.28125 C 48.332031 20.660156 47.828125 20.160156 47.210938 20.160156 L 42.765625 20.160156 L 42.765625 14.058594 C 42.765625 13.441406 42.261719 12.9375 41.644531 12.9375 C 41.023438 12.9375 40.523438 13.441406 40.523438 14.058594 L 40.523438 20.160156 L 37.695312 20.160156 L 37.695312 14.058594 C 37.695312 13.441406 37.195312 12.9375 36.574219 12.9375 C 35.953125 12.9375 35.453125 13.441406 35.453125 14.058594 L 35.453125 20.160156 L 32.511719 20.160156 L 32.511719 14.058594 C 32.511719 13.441406 32.007812 12.9375 31.390625 12.9375 C 30.769531 12.9375 30.269531 13.441406 30.269531 14.058594 L 30.269531 20.160156 L 28.710938 20.160156 L 28.710938 14.058594 C 28.710938 13.441406 28.210938 12.9375 27.589844 12.9375 C 26.96875 12.9375 26.46875 13.441406 26.46875 14.058594 L 26.46875 20.160156 L 24.285156 20.160156 L 24.285156 14.058594 C 24.285156 13.441406 23.785156 12.9375 23.164062 12.9375 C 22.546875 12.9375 22.042969 13.441406 22.042969 14.058594 L 22.042969 20.160156 L 20.453125 20.160156 L 20.453125 14.058594 C 20.453125 13.441406 19.949219 12.9375 19.332031 12.9375 C 18.710938 12.9375 18.210938 13.441406 18.210938 14.058594 L 18.210938 20.160156 L 16.023438 20.160156 L 16.023438 14.058594 C 16.023438 13.441406 15.519531 12.9375 14.902344 12.9375 C 14.28125 12.9375 13.78125 13.441406 13.78125 14.058594 L 13.78125 20.160156 L 12.011719 20.160156 L 12.011719 14.058594 C 12.011719 13.441406 11.507812 12.9375 10.890625 12.9375 C 10.269531 12.9375 9.769531 13.441406 9.769531 14.058594 L 9.769531 20.160156 L 8.578125 20.160156 L 8.578125 14.058594 C 8.578125 13.441406 8.074219 12.9375 7.453125 12.9375 C 6.835938 12.9375 6.332031 13.441406 6.332031 14.058594 L 6.332031 20.160156 L 1.78125 20.160156 C 1.164062 20.160156 0.660156 20.660156 0.660156 21.28125 C 0.660156 21.898438 1.164062 22.402344 1.78125 22.402344 L 6.332031 22.402344 L 6.332031 35.761719 C 6.332031 36.382812 6.835938 36.882812 7.453125 36.882812 C 8.074219 36.882812 8.578125 36.382812 8.578125 35.761719 L 8.578125 22.402344 L 9.769531 22.402344 L 9.769531 30.289062 C 9.769531 30.910156 10.269531 31.410156 10.890625 31.410156 C 11.507812 31.410156 12.011719 30.910156 12.011719 30.289062 L 12.011719 22.402344 L 13.78125 22.402344 L 13.78125 30.289062 C 13.78125 30.910156 14.28125 31.410156 14.902344 31.410156 C 15.519531 31.410156 16.023438 30.910156 16.023438 30.289062 L 16.023438 22.402344 L 18.210938 22.402344 L 18.210938 30.289062 C 18.210938 30.910156 18.710938 31.410156 19.332031 31.410156 C 19.949219 31.410156 20.453125 30.910156 20.453125 30.289062 L 20.453125 22.402344 L 22.042969 22.402344 L 22.042969 30.289062 C 22.042969 30.910156 22.546875 31.410156 23.164062 31.410156 C 23.785156 31.410156 24.285156 30.910156 24.285156 30.289062 L 24.285156 22.402344 L 26.46875 22.402344 L 26.46875 30.289062 C 26.46875 30.910156 26.96875 31.410156 27.589844 31.410156 C 28.210938 31.410156 28.710938 30.910156 28.710938 30.289062 L 28.710938 22.402344 L 30.269531 22.402344 L 30.269531 30.289062 C 30.269531 30.910156 30.769531 31.410156 31.390625 31.410156 C 32.007812 31.410156 32.511719 30.910156 32.511719 30.289062 L 32.511719 22.402344 L 35.453125 22.402344 L 35.453125 30.289062 C 35.453125 30.910156 35.953125 31.410156 36.574219 31.410156 C 37.195312 31.410156 37.695312 30.910156 37.695312 30.289062 L 37.695312 22.402344 L 40.523438 22.402344 L 40.523438 35.761719 C 40.523438 36.382812 41.023438 36.882812 41.644531 36.882812 C 42.261719 36.882812 42.765625 36.382812 42.765625 35.761719 Z M 42.765625 35.761719 "/>
<path style=" stroke:none;fill-rule:nonzero;fill:rgb(0%,0%,0%);fill-opacity:1;" d="M 1.121094 15.335938 C 1.742188 15.335938 2.242188 14.835938 2.242188 14.214844 L 2.242188 9.640625 C 2.242188 9.089844 2.691406 8.640625 3.246094 8.640625 L 6.957031 8.640625 C 7.578125 8.640625 8.078125 8.140625 8.078125 7.519531 C 8.078125 6.898438 7.578125 6.398438 6.957031 6.398438 L 3.246094 6.398438 C 1.457031 6.398438 0 7.851562 0 9.640625 L 0 14.214844 C 0 14.832031 0.503906 15.335938 1.121094 15.335938 Z M 1.121094 15.335938 "/>
<path style=" stroke:none;fill-rule:nonzero;fill:rgb(0%,0%,0%);fill-opacity:1;" d="M 6.957031 41.359375 L 3.246094 41.359375 C 2.691406 41.359375 2.242188 40.910156 2.242188 40.359375 L 2.242188 35.785156 C 2.242188 35.167969 1.742188 34.664062 1.121094 34.664062 C 0.503906 34.664062 0 35.167969 0 35.785156 L 0 40.359375 C 0 42.148438 1.457031 43.601562 3.246094 43.601562 L 6.957031 43.601562 C 7.578125 43.601562 8.078125 43.101562 8.078125 42.480469 C 8.078125 41.863281 7.578125 41.359375 6.957031 41.359375 Z M 6.957031 41.359375 "/>
<path style=" stroke:none;fill-rule:nonzero;fill:rgb(0%,0%,0%);fill-opacity:1;" d="M 46.753906 6.398438 L 43.042969 6.398438 C 42.421875 6.398438 41.921875 6.898438 41.921875 7.519531 C 41.921875 8.140625 42.421875 8.640625 43.042969 8.640625 L 46.753906 8.640625 C 47.308594 8.640625 47.757812 9.089844 47.757812 9.640625 L 47.757812 14.214844 C 47.757812 14.835938 48.257812 15.335938 48.878906 15.335938 C 49.496094 15.335938 50 14.835938 50 14.214844 L 50 9.640625 C 50 7.851562 48.542969 6.398438 46.753906 6.398438 Z M 46.753906 6.398438 "/>
<path style=" stroke:none;fill-rule:nonzero;fill:rgb(0%,0%,0%);fill-opacity:1;" d="M 48.878906 34.664062 C 48.257812 34.664062 47.757812 35.167969 47.757812 35.785156 L 47.757812 40.359375 C 47.757812 40.910156 47.308594 41.359375 46.753906 41.359375 L 43.042969 41.359375 C 42.421875 41.359375 41.921875 41.863281 41.921875 42.480469 C 41.921875 43.101562 42.421875 43.601562 43.042969 43.601562 L 46.753906 43.601562 C 48.542969 43.601562 50 42.148438 50 40.359375 L 50 35.785156 C 50 35.167969 49.496094 34.664062 48.878906 34.664062 Z M 48.878906 34.664062 "/>
<path style=" stroke:none;fill-rule:nonzero;fill:rgb(0%,0%,0%);fill-opacity:1;" d="M 36.644531 34.847656 L 11.332031 34.847656 C 10.710938 34.847656 10.207031 35.347656 10.207031 35.96875 C 10.207031 36.585938 10.710938 37.089844 11.332031 37.089844 L 36.644531 37.089844 C 37.265625 37.089844 37.765625 36.585938 37.765625 35.96875 C 37.765625 35.347656 37.265625 34.847656 36.644531 34.847656 Z M 36.644531 34.847656 "/>
</g>
</svg>
